<?xml version="1.0" encoding="utf-8"?>
<!-- Generator: Adobe Illustrator 27.3.1, SVG Export Plug-In . SVG Version: 6.00 Build 0)  -->
<svg version="1.1" id="Layer_1" xmlns="http://www.w3.org/2000/svg" xmlns:xlink="http://www.w3.org/1999/xlink" x="0px" y="0px"
	 viewBox="0 0 1080 1080" style="enable-background:new 0 0 1080 1080;" xml:space="preserve">
<style type="text/css">
	.st0{fill:#C19261;}
	.st1{fill:#5A4A42;}
</style>
<g>
	<g>
		<path class="st0" d="M214.1,471.2c-32,45.5-20.3,99.8-20.3,99.8s0-1.9,1-9.7c1.8-14.8,10.8-28.4,19.6-40
			c6.5-8.5,12.5-16.7,17.5-26.2c1.1-2.2,5.9-8.8,5.5-11.3c1.5,9.7-1.7,20.8-4.7,29.8c-5.7,17.5-18.8,30.2-26.8,46.3
			c-5.7,11.3-7.9,24.1-8.2,36.7c-0.6,23.9,7.1,47.1,19.4,67.3c5.2,8.5,11.7,16.3,18.1,23.9c0.8,1,1.6,1.9,2.5,2.8
			c-25.7,3.8-53.1-2.4-76.6-20.6c-34-26.4-51.2-71.7-30.3-120.4c1.8,3.9,3.8,8.4,5.9,13.6c10.1,24.8,12.6,32.9,34.9,50.4
			c22.3,17.4,21.3,37.8,21.3,37.8s3.9-7.8-1.9-30c-7.8-30-25.9-41-27.1-41.6c0.3,0.1,1.9,0.8,11.6,4.8c11.4,4.7,19,17.8,19.4,18.4
			c-0.2-0.8-8-26.4-23.2-44.5c-8.6-10.2-23.2-17.4-34.4-21.9c11.8-23,25.8-44.7,39.7-66.5c16.5-25.9,32.9-51.8,45.2-80
			c0.2-0.4,0.6-0.8,1.5-1.8c6.3,15.5,14.6,29.4,22.3,43.7c0.2,0.4,0.5,0.8,0.7,1.2C236.5,442.7,225.2,455.3,214.1,471.2z"/>
		<path class="st0" d="M317.4,554.4c-8.4-21.6-21.4-40.7-32.8-60.7c-4.6-8.1-10-15.7-15-23.5c0.5,6.2,1,12.4,1.2,18.6
			c0.5,16.9-2.8,33.6-10.1,48.9c-7.2,15-18.3,27.5-27.6,41.2c-10.9,16.1-23.1,34.3-23.2,54.5c-0.1,12,5.1,22,11,32.1
			c5.2,8.8,11,17.2,17.3,25.3c26.5-4.1,51-18.7,67.4-41.5C326.5,620,330.5,588.2,317.4,554.4z M309.5,595.2c-0.4,0.6-1.1,1-1.8,1.3
			c-1.6,0.8-4.2,1.2-5.7,2.2c-1.1,0.8-1,0.8-0.3,2.1c0.6,1.2,1.7,2.3,2.7,3.4c0.4,0.4,0.3,1-0.1,1.4c-1.2,0.9-3.3,2.6-4,3.2
			c-0.7,0.7,1.9,2.6,3.2,3.5c0.3,0.2,0.4,0.7,0.1,1l-1.4,1.4c-1.9,1.9-1.9,1.9-1.9,3.9s-1.9,12.6-13.6,12.6
			c-11.6,0-24.2-4.8-40.7,4.8s-17.4,31-17.4,31s-3.9-4.8-1-25.2c3.5-24.8,18.9-36.4,19.4-36.8c-0.4,0.1-10.8,2.1-19.4,11.6
			c-6.4,7.1-10.7,19.4-10.7,19.4s-9.7-23.3,34.9-68.8c17.7-18.1,18.4-36.8,18.4-36.8c0,0.2,1.9,1.4,2.1,1.6
			c7.4,6.1,13.8,14.1,18.1,22.6c1.7,3.4,3.4,6.9,4.2,10.7c0.8,3.7,0.9,7.6,2.3,11.1c2.3,6,8.3,9,11.8,14.1
			C309.8,591.8,310.5,593.8,309.5,595.2z"/>
	</g>
	<g>
		<g>
			<path class="st1" d="M436.7,521.6v16.7h-67.3V431.9h19.4v89.7H436.7z"/>
			<path class="st1" d="M516.4,535.9c-3.6,0.9-8.2,1.9-14,2.8c-5.7,1-12,1.5-18.9,1.5c-6.5,0-11.9-0.9-16.2-2.8
				c-4.4-1.8-7.8-4.4-10.4-7.7c-2.6-3.3-4.5-7.2-5.6-11.8c-1.1-4.6-1.7-9.5-1.7-15v-45h18.6v42.1c0,8.6,1.3,14.7,3.8,18.4
				c2.5,3.7,6.9,5.5,13.1,5.5c2.3,0,4.6-0.1,7.1-0.3c2.5-0.2,4.4-0.5,5.6-0.8v-65h18.6V535.9z"/>
			<path class="st1" d="M558.7,489.4c2.4-2.5,4.9-5.1,7.5-7.9c2.7-2.8,5.3-5.6,7.8-8.4c2.6-2.8,5-5.5,7.3-8.1
				c2.3-2.6,4.3-4.9,5.9-6.8h22c-5.1,5.7-10.5,11.7-16.2,17.8c-5.7,6.1-11.4,12.1-17.1,18c3.1,2.6,6.3,5.7,9.7,9.3
				c3.4,3.6,6.6,7.5,9.8,11.6c3.2,4.1,6.1,8.2,8.9,12.3c2.8,4.1,5.1,7.9,6.9,11.4h-21.5c-1.8-3.2-4-6.5-6.4-10
				c-2.4-3.5-5-6.9-7.8-10.1c-2.8-3.3-5.6-6.4-8.4-9.3c-2.9-2.9-5.7-5.4-8.5-7.5v36.9h-18.6V422.2l18.6-3.1V489.4z"/>
			<path class="st1" d="M651.5,456c6.1,0,11.3,0.8,15.5,2.3c4.2,1.5,7.6,3.7,10.1,6.5c2.5,2.8,4.3,6.1,5.4,10.1
				c1.1,3.9,1.6,8.3,1.6,13v48.7c-2.9,0.6-7.2,1.4-13,2.2c-5.8,0.9-12.3,1.3-19.6,1.3c-4.8,0-9.2-0.5-13.2-1.4
				c-4-0.9-7.4-2.4-10.2-4.5c-2.8-2-5-4.7-6.6-8c-1.6-3.3-2.4-7.3-2.4-12.1c0-4.6,0.9-8.5,2.7-11.7c1.8-3.2,4.2-5.8,7.3-7.8
				c3.1-2,6.6-3.4,10.7-4.3c4-0.9,8.3-1.3,12.7-1.3c2,0,4.2,0.1,6.5,0.4c2.3,0.3,4.7,0.7,7.2,1.3v-3.1c0-2.2-0.3-4.2-0.8-6.1
				c-0.5-1.9-1.4-3.7-2.7-5.1c-1.3-1.5-3-2.6-5.1-3.5c-2.1-0.8-4.7-1.2-7.9-1.2c-4.3,0-8.2,0.3-11.8,0.9c-3.6,0.6-6.5,1.3-8.8,2.2
				l-2.3-15.1c2.4-0.8,5.8-1.6,10.3-2.5C641.5,456.4,646.3,456,651.5,456z M653,525.3c5.7,0,10.1-0.3,13.1-0.9v-20.6
				c-1-0.3-2.5-0.6-4.5-0.9c-1.9-0.3-4.1-0.5-6.5-0.5c-2,0-4.1,0.2-6.2,0.5c-2.1,0.3-4,0.9-5.7,1.7c-1.7,0.8-3,2-4.1,3.5
				c-1,1.5-1.5,3.4-1.5,5.6c0,4.4,1.4,7.5,4.1,9.1S648.3,525.3,653,525.3z"/>
			<path class="st1" d="M706.8,460.6c3.6-1,8.2-2,14-2.9c5.7-0.9,12.1-1.4,19.1-1.4c6.6,0,12,0.9,16.4,2.7c4.4,1.8,7.9,4.3,10.5,7.5
				c2.6,3.2,4.5,7.1,5.5,11.7c1.1,4.6,1.6,9.6,1.6,15v45.2h-18.6v-42.2c0-4.3-0.3-8-0.8-11c-0.6-3-1.5-5.5-2.8-7.4
				c-1.3-1.9-3-3.3-5.2-4.1c-2.2-0.9-4.9-1.3-8.1-1.3c-2.4,0-4.8,0.2-7.4,0.5c-2.6,0.3-4.5,0.6-5.7,0.8v64.8h-18.6V460.6z"/>
			<path class="st1" d="M864.5,535.9c-3.7,1.1-8.3,2.2-13.9,3.1c-5.6,0.9-11.4,1.4-17.6,1.4c-6.4,0-12-1-17.1-2.9
				c-5-1.9-9.3-4.7-12.8-8.4c-3.5-3.6-6.2-8-8.1-13.2c-1.9-5.2-2.8-11-2.8-17.4c0-6.3,0.8-12.1,2.4-17.3c1.6-5.2,3.9-9.6,7-13.3
				c3.1-3.7,6.8-6.5,11.2-8.5c4.4-2,9.5-3,15.2-3c3.9,0,7.3,0.5,10.3,1.4c3,0.9,5.5,1.9,7.7,3.1v-38.6l18.6-3.1V535.9z M811.2,498
				c0,8.2,1.9,14.6,5.8,19.3c3.9,4.7,9.3,7,16.1,7c3,0,5.5-0.1,7.6-0.4c2.1-0.3,3.8-0.5,5.1-0.8v-46.1c-1.6-1.1-3.8-2.2-6.5-3.1
				c-2.7-1-5.6-1.5-8.7-1.5c-6.8,0-11.7,2.3-14.8,6.9C812.8,483.8,811.2,490.1,811.2,498z"/>
			<path class="st1" d="M914.9,456c6.1,0,11.3,0.8,15.5,2.3c4.2,1.5,7.6,3.7,10.1,6.5c2.5,2.8,4.3,6.1,5.4,10.1
				c1.1,3.9,1.6,8.3,1.6,13v48.7c-2.9,0.6-7.2,1.4-13,2.2c-5.8,0.9-12.3,1.3-19.6,1.3c-4.8,0-9.2-0.5-13.2-1.4
				c-4-0.9-7.4-2.4-10.2-4.5c-2.8-2-5-4.7-6.6-8c-1.6-3.3-2.4-7.3-2.4-12.1c0-4.6,0.9-8.5,2.7-11.7c1.8-3.2,4.2-5.8,7.3-7.8
				c3.1-2,6.6-3.4,10.7-4.3c4-0.9,8.3-1.3,12.7-1.3c2,0,4.2,0.1,6.5,0.4c2.3,0.3,4.7,0.7,7.2,1.3v-3.1c0-2.2-0.3-4.2-0.8-6.1
				c-0.5-1.9-1.4-3.7-2.7-5.1c-1.3-1.5-3-2.6-5.1-3.5c-2.1-0.8-4.7-1.2-7.9-1.2c-4.3,0-8.2,0.3-11.8,0.9c-3.6,0.6-6.5,1.3-8.8,2.2
				l-2.3-15.1c2.4-0.8,5.8-1.6,10.3-2.5C905,456.4,909.8,456,914.9,456z M916.5,525.3c5.7,0,10.1-0.3,13.1-0.9v-20.6
				c-1-0.3-2.5-0.6-4.5-0.9c-1.9-0.3-4.1-0.5-6.5-0.5c-2,0-4.1,0.2-6.2,0.5c-2.1,0.3-4,0.9-5.7,1.7c-1.7,0.8-3,2-4.1,3.5
				c-1,1.5-1.5,3.4-1.5,5.6c0,4.4,1.4,7.5,4.1,9.1S911.8,525.3,916.5,525.3z"/>
		</g>
		<g>
			<path class="st0" d="M453.4,607c-0.2-0.1-0.3-0.1-0.3-0.2c0-0.1-0.1,0-0.2,0.1c-0.2,0.1-0.2,0-0.1-0.2c0.1-0.2,0-0.3-0.1-0.2
				c0.1-0.1,0.2-0.3,0.2-0.6c0-0.3,0.1-0.5,0.2-0.8c0-0.1-0.1-0.2-0.2-0.2c-0.1,0-0.2-0.1-0.2-0.2c0.1-0.3,0.2-0.8,0.3-1.5
				c0.2-0.7,0.3-1.4,0.5-2.2c0.2-0.7,0.3-1.4,0.5-2c0.2-0.6,0.3-1,0.4-1.1c1.5-3.8,2.9-7.6,4.3-11.3c1.4-3.8,2.9-7.5,4.4-11.3
				l2.4-5.4c0.1-0.4,0.1-0.8,0.2-1.1c0.1-0.4,0.2-0.7,0.4-0.9c0.1-0.2,0.3-0.4,0.5-0.5c0.2-0.1,0.4-0.4,0.5-0.7
				c-2.2,0.8-4.7,1.8-7.3,2.9c-2.6,1.2-5,2.4-7.1,3.6c-0.7,0.4-1.3,0.7-1.9,1c-0.5,0.3-1.3,0.3-2.2,0.2c-0.8-0.1-1.6-0.5-2.4-1.2
				c-0.8-0.7-1.2-1.4-1.2-2.1c0-0.4,0.2-0.9,0.5-1.2c0.3-0.4,0.7-0.7,1.2-1c0.5-0.3,1-0.6,1.5-0.9c0.5-0.3,1-0.5,1.5-0.7
				c4.8-2.2,9.6-4.3,14.5-6.3c4.9-1.9,10.2-3.5,15.9-4.8c2.3-0.6,4.7-1.1,7-1.5c2.4-0.4,4.8-0.7,7.2-0.7c1.5-0.1,2.9,0,4.3,0.1
				c1.4,0.2,2.7,0.5,3.8,0.9c1.1,0.4,2.1,1,2.8,1.7c0.8,0.7,1.3,1.7,1.6,2.7c0.1,0.3,0,0.8,0,1.3s-0.2,1.1-0.3,1.6
				c-0.3,1-0.9,1.9-1.6,2.7c-0.8,0.8-1.6,1.6-2.5,2.4c-2.3,2.1-4.9,4.1-7.8,5.8c-2.9,1.8-5.7,3.4-8.4,5c1.5,0.1,3,0.1,4.5,0.2
				c1.5,0.1,3,0.2,4.5,0.5c3,0.3,5.4,0.9,7.4,1.9c2,0.9,3.3,1.7,4,2.2c0.7,0.6,1.3,1.3,1.9,2.3c0.6,0.9,1,1.8,1.3,2.7
				c0.3,0.9,0.4,1.8,0.3,2.7c-0.1,0.9-0.2,1.8-0.5,2.6c-0.3,0.8-0.6,1.6-1,2.3c-0.4,0.7-0.7,1.3-1.1,1.9c3-0.4,5.9-0.9,8.9-1.6
				s6-1.3,9-1.8c1.9-0.3,3.7-0.6,5.6-0.9c1.9-0.3,3.8-0.4,5.7-0.6c0.1-0.1,0.7-0.2,1.7-0.2c1,0,2,0,2.9,0c0.9,0.1,1.6,0.1,1.9,0.2
				c0.4,0.1,0,0.2-1.2,0.3c-0.1,0.3-0.3,0.5-0.7,0.6c0,0.1,0.1,0.1,0.2,0c0.1-0.1,0.3-0.1,0.4,0c-0.6,0.5-1.3,0.8-2.1,0.9
				c-0.8,0.1-1.6,0.2-2.4,0.3c0.1,0.2,0.4,0.2,0.8,0c0.4-0.2,0.7-0.2,0.9,0c-0.8,0.3-1.5,0.5-1.9,0.5c-0.5,0-1.1,0.2-1.8,0.5
				l-1.8,0.4c-0.7,0.4-1.8,0.7-3.2,0.8c-1.4,0.2-2.6,0.4-3.5,0.6c-0.5,0.1-0.9,0.2-1.3,0.3c-0.5,0.1-0.9,0.2-1.4,0.3
				c-0.6,0.1-1.6,0.3-2.9,0.6c-1.3,0.3-2.7,0.7-4.3,1.2c-1.6,0.5-3.3,0.9-5.1,1.4c-1.8,0.5-3.5,1-5.1,1.6c-1.6,0.5-3,1.1-4.3,1.5
				c-1.3,0.5-2.2,0.9-2.7,1.3c-0.6,0.3-1.1,0.7-1.6,1.2c-0.5,0.5-1,0.9-1.5,1.4c-1.7,1.2-3.4,2.4-5.1,3.6c-1.7,1.3-3.5,2.4-5.3,3.3
				c-2.8,2.1-5.8,4.1-9.2,6.1c-3.3,1.9-6.8,3.7-10.4,5.4c-3.6,1.7-7.2,3.3-10.8,4.8c-3.6,1.5-7,2.9-10.3,4.3c-1.2,0.5-2.3,1-3.5,1.4
				c-1.2,0.4-2.4,0.8-3.6,1.2c-1.2,0.5-2.5,1-3.9,1.3c-1.4,0.4-2.7,0.7-4,0.9c-0.6,0.1-1.1,0-1.6,0c-0.5-0.1-1.1-0.2-1.6-0.3
				c-0.6-0.1-1.3-0.2-2.1-0.1c-0.8,0-1.6-0.1-2.2-0.4c-1.2-0.4-1.7-1-1.6-1.8c0.1-0.8,0.5-1.7,1.2-2.6c1.2-1.3,2.5-2.5,3.9-3.7
				c1.4-1.2,2.8-2.3,4.3-3.4c3.6-2.4,7-4.5,10.1-6.3c3.1-1.8,6.3-3.4,9.3-4.9c3.1-1.4,6.2-2.8,9.5-4.2c3.2-1.3,6.8-2.8,10.6-4.3
				c3.2-1.1,6.5-2.1,9.8-3.1c3.3-1,6.6-1.9,9.9-2.8c0.4-0.3,1-0.5,1.5-0.7c0.6-0.2,1.2-0.4,1.7-0.5c0.6-0.1,1.2-0.2,1.8-0.3
				c0.6-0.1,1.1-0.2,1.5-0.3c0.3-0.3,0.7-0.6,1.1-1c0.4-0.4,0.8-0.8,1.1-1.1c0.4-0.4,0.9-0.9,1.4-1.4c0.5-0.6,1-1.2,1.5-1.9
				s0.9-1.3,1.3-2c0.4-0.7,0.7-1.3,0.9-1.9c0.3-0.8,0.4-1.7,0.4-2.7c0-1-0.1-1.8-0.4-2.6c-0.3-0.4-0.8-0.7-1.3-1.1
				c-0.5-0.3-1.1-0.6-1.8-0.8c-1.9-0.6-4.2-1.1-6.9-1.4c-2.7-0.3-5.3-0.4-8-0.2c-1.3,0.1-2.5,0.2-3.6,0.3c-1.1,0.2-2.2,0.3-3.3,0.5
				c-1.2,0.1-2.4,0.4-3.4,0.7c-1.1,0.4-2.1,0.6-3.2,0.7c-1.3,0.1-2.4-0.2-3.3-0.7c-0.9-0.5-1.6-1.1-2.1-1.8c0.3-0.6,0.8-0.9,1.3-1.1
				c0.5-0.2,1.1-0.4,1.7-0.7c0.5-0.2,1-0.4,1.3-0.6c0.4-0.2,0.8-0.4,1.3-0.6c0.7-0.3,1.4-0.7,2-1.1c0.6-0.4,1.3-0.8,1.8-1.1
				c1.3-0.7,2.5-1.4,3.7-2.1c1.2-0.7,2.4-1.4,3.6-2.1c0.6-0.5,1.3-0.9,1.9-1.3c0.6-0.3,1.2-0.6,1.7-1c1.2-0.7,2.3-1.5,3.5-2.5
				c1.2-0.9,2.3-1.8,3.4-2.6c1.1-0.9,2.2-1.8,3.2-2.7c1.1-0.9,1.8-2.1,2.4-3.6c-0.5-0.1-1.1-0.2-1.8-0.1c-0.7,0-1.4,0.1-2.1,0.1
				c-5,0.3-9.7,1-14.1,2.1c-4.4,1.2-8.5,2.5-12.3,4c-0.1,0.3,0,0.6,0,0.7c0.1,0.2,0.3,0.1,0.6,0c-0.1,0.3,0,0.4,0.2,0.5
				s0.4,0.3,0.4,0.5c0,0.5-0.2,1.4-0.6,2.6c-0.4,1.2-0.9,2.5-1.4,4c-0.5,1.4-1.1,2.8-1.6,4.2c-0.6,1.4-1,2.5-1.3,3.2
				c-1.2,2.6-2.5,5-3.8,7.2c-1.3,2.2-2.4,4.6-3.4,7c-0.3,0.7-0.7,1.4-1,2.1c-0.4,0.7-0.7,1.5-1,2.4c-0.1,0.3-0.2,0.5-0.3,0.7
				c-0.1,0.2-0.2,0.4-0.2,0.6c-0.1,0.3-0.2,0.5-0.3,0.7c-0.1,0.2-0.1,0.5-0.2,0.7c-0.3,0.4-0.6,0.7-1,1c-0.1,0.1-0.1,0.3,0,0.4
				c0,0.1,0,0.3-0.1,0.4L453.4,607z M434,634.1c2.4-0.8,4.6-1.5,6.6-2.1c1.9-0.6,3.8-1.3,5.5-1.9c1.8-0.6,3.6-1.3,5.4-2.1
				c1.8-0.8,3.9-1.7,6.1-2.8c3.1-1.5,6.1-3.1,9.1-4.7c3-1.6,5.8-3.2,8.4-4.7c2.7-1.5,5.1-3,7.4-4.4c2.3-1.4,4.3-2.7,6.1-4
				c-1.5,0.6-3.3,1.1-5.3,1.6c-2,0.5-3.7,1.1-5.2,1.8c-0.8,0.1-1.4,0.4-1.9,0.7c-0.5,0.4-1.2,0.5-1.9,0.5c-1.5,0.7-2.9,1.3-4.2,1.8
				c-1.3,0.5-2.7,1-4.1,1.6c-0.8,0.3-1.6,0.7-2.4,1c-0.8,0.4-1.6,0.8-2.5,1.3c-1.3,0.5-2.2,0.9-2.7,1c-0.5,0.2-0.7,0.2-0.8,0.2
				c-0.1,0.1-0.3,0.2-0.7,0.4c-0.4,0.2-1.2,0.7-2.4,1.4c-1.1,0.6-2,1.1-2.6,1.4c-0.6,0.3-1.2,0.6-1.8,0.9c-0.5,0.3-1.1,0.5-1.7,0.9
				c-0.6,0.3-1.4,0.8-2.5,1.4c-1.9,1.2-3.7,2.3-5.5,3.4c-1.8,1.1-3.6,2.3-5.5,3.5c-0.4,0.4-0.9,0.8-1.5,1.2
				c-0.5,0.4-1.1,0.8-1.6,1.3c0.5,0.1,1,0.1,1.3-0.2C433.5,634.4,433.8,634.2,434,634.1z"/>
			<path class="st0" d="M539.5,609.8c-0.5,0.3-1.1,0.6-1.7,0.7c-0.6,0.2-1.2,0.3-1.8,0.5c-0.8,0.2-1.6,0.4-2.6,0.6
				c-1,0.2-1.9,0.3-2.9,0.2c-1,0-1.9-0.2-2.7-0.6c-0.9-0.4-1.6-0.9-2.2-1.8c-0.5-0.6-0.7-1.3-0.8-2.1c-0.1-0.8,0-1.7,0.2-2.6
				c0.2-0.9,0.5-1.7,0.8-2.6c0.4-0.9,0.7-1.7,1.1-2.4c0.3-0.3,0.6-0.6,0.8-1c0.2-0.4,0.3-0.7,0.4-1c1.3-1.6,2.7-3.1,4.2-4.6
				c1.4-1.5,2.9-2.6,4.5-3.5c0.7-0.4,1.4-0.8,2.2-1.2c0.8-0.3,1.5-0.6,2.1-1c0.3-0.1,0.5-0.3,0.6-0.4c0.2-0.1,0.4-0.2,0.7-0.2
				c2.3,0,3.8,0.4,4.5,1.2c0.7,0.8,1.1,1.6,1.1,2.4c-0.1,0.3-0.3,0.5-0.7,0.9c-0.4,0.3-0.7,0.6-0.9,1c-0.3,0.3-0.6,0.6-0.9,0.9
				c-0.3,0.3-0.5,0.6-0.6,0.8c-2.6,2.2-5.1,4.2-7.7,6c-0.6,0.5-1.5,0.9-2.6,1.1c-1.1,0.2-2.1,0.2-3.2,0.1c-0.4,0.4-0.8,0.9-1.2,1.5
				c-0.4,0.6-0.7,1.3-0.9,1.9c-0.2,0.7-0.3,1.3-0.3,2c0,0.7,0.3,1.2,0.8,1.7c1.3,0.1,2.4,0,3.4-0.4c1-0.4,1.9-0.7,2.8-1
				c0.7-0.2,1.4-0.4,2.2-0.7c0.8-0.3,1.4-0.5,2-0.8c1.3-0.6,2.5-1.2,3.3-1.5c0.9-0.4,1.7-0.7,2.5-1.1c0.8-0.3,1.6-0.7,2.4-1.1
				c0.8-0.4,1.9-0.9,3.2-1.6c1-0.5,2.1-1,3.1-1.6c1.1-0.5,2.1-1.1,3-1.6c0.2-0.1,0.3-0.2,0.2-0.2c0,0-0.1,0-0.1,0
				c-0.1,0-0.1,0.1-0.1,0.1c0,0,0.1,0,0.4,0c0.1,0,0.1,0,0.2-0.1c0.1-0.1,0.2-0.1,0.2-0.1c0.6,0,1,0,1.2,0.1
				c0.2,0.1,0.3,0.3,0.2,0.5c0,0.2-0.2,0.5-0.4,0.8c-0.2,0.3-0.5,0.6-0.7,1c0.1,0,0,0.1-0.2,0.2c-0.2,0.2-0.5,0.3-0.8,0.5
				c-0.3,0.2-0.7,0.4-1.1,0.7c-0.7,0.5-1.6,1.1-2.6,1.6c-1,0.6-2.1,1.1-3.1,1.7c-1,0.5-2,1-2.9,1.5c-0.9,0.5-1.6,0.8-2,1
				L539.5,609.8z M532.6,599.9c0.6,0,1.1-0.2,1.7-0.5c0.5-0.3,1.1-0.6,1.6-1c1.3-1,2.6-2.2,4-3.4c1.3-1.3,2.6-2.5,3.7-3.8
				c0.1,0,0.2-0.1,0.2-0.3c-2.3,0.8-4.4,2.1-6.1,3.7C535.8,596.2,534.1,598,532.6,599.9z"/>
			<path class="st0" d="M583.1,601.3c1.9-0.7,3-0.9,3.3-0.6c0.4,0.3,0.2,0.7-0.5,1.3c-0.2,0.2-0.4,0.3-0.7,0.4
				c-0.3,0.1-0.5,0.4-0.7,0.9c-1,0.8-1.6,1.4-2,1.6c-0.4,0.2-0.6,0.3-0.8,0.2c-1,0.5-2,1-2.8,1.7c-0.8,0.7-1.7,1.3-2.6,1.9
				c-0.9,0.6-1.8,1-2.8,1.3c-1,0.3-2.2,0.3-3.5,0c-0.1,0-0.3,0-0.4-0.1c-0.2-0.1-0.3-0.2-0.5-0.2c-0.6-0.3-1-0.6-1.2-0.9
				c-0.2-0.4-0.4-0.8-0.6-1.2c-0.1-0.5-0.2-1.1-0.2-1.9c0-0.7,0-1.5,0.1-2.3c-0.1-0.1-0.2,0-0.2,0c0,0.1-0.1,0.1-0.1,0.1
				c-0.1,0.1-0.3,0.1-0.4,0.2c-0.1,0.1-0.3,0.2-0.5,0.3c-0.3,0.4-0.6,0.7-0.9,1.1c-0.3,0.3-0.7,0.6-1.1,0.8
				c-0.1,0.3-0.3,0.5-0.5,0.6c-0.2,0.1-0.4,0.3-0.5,0.4c-0.1,0-0.1,0,0,0.1c0,0.1,0,0.1,0,0.1c-0.1,0.1-0.3,0.1-0.6,0.2
				c-0.3,0.1-0.5,0.2-0.6,0.4c-1.5,1-3.1,1.9-4.7,2.6c-0.5,0.3-0.9,0.6-1.4,0.8c-0.5,0.2-0.9,0.3-1.4,0.2c-0.3,0-0.6,0-0.8,0
				c-0.2,0-0.5-0.1-0.8-0.2c-0.5-0.1-1-0.1-1.5-0.1c-0.5,0-0.9-0.2-1.3-0.6c-0.7-0.4-0.9-1.3-0.6-2.5c0-0.1,0-0.1,0.1-0.1
				c0.1,0,0.1-0.1,0.1-0.2c0.1-0.7,0.3-1.4,0.6-2c0.4-0.6,0.7-1.2,1.1-1.7c0.5-0.9,1.1-1.7,1.7-2.5c0.6-0.8,1.3-1.6,1.8-2.4
				c0.5-0.4,1.3-1.2,2.4-2.2c1.1-1,2.2-2.1,3.5-3.1c1.2-1.1,2.3-2,3.4-2.8c1-0.8,1.7-1.2,2.1-1.3c0.7-0.3,1.3-0.7,1.7-1.2
				c0.4-0.5,1.1-0.9,2-1.1c0.1,0,0.1,0,0.1,0c0,0,0,0,0.1,0c0.1,0,0.3,0,0.4,0c0.2,0,0.3,0,0.4-0.1c0.4,0.2,0.8,0.3,1.3,0.3
				c0.3,0.3,0.5,0.6,0.9,0.9c0.3,0.3,0.5,0.6,0.5,1c0.2,0.2,0.2,0.5,0.1,0.8c-0.1,0.3-0.3,0.5-0.6,0.7c-0.2,0.2-0.4,0.3-0.7,0.2
				c-0.3,0-0.5,0-0.8,0.1c-0.6,0.3-1.3,0.6-1.8,1.2l-1.2,0.8l-0.2,0.2c-0.2,0-0.4,0-0.6,0.1c-0.2,0.1-0.4,0.3-0.5,0.7
				c-0.5,0.1-1,0.4-1.5,0.7c-0.5,0.4-1,0.7-1.5,1c-0.3,0.3-0.6,0.6-0.9,0.8c-0.3,0.2-0.5,0.5-0.9,0.7c-0.5,0.5-1.1,0.9-1.6,1.4
				c-0.6,0.5-1.1,1-1.6,1.5c-0.3,0.3-0.6,0.6-0.9,0.9c-0.3,0.4-0.7,0.6-1.1,0.8c0,0.3-0.1,0.5-0.4,0.7v0.1v0.1
				c-0.4,0.2-0.7,0.5-0.9,0.8c-0.2,0.4-0.5,0.7-0.7,1c-0.1,0.6-0.4,1.1-0.8,1.5c-0.4,0.5-0.6,0.9-0.7,1.4c0.6-0.2,1.2-0.5,1.5-0.9
				c2.2-1.3,4.3-2.7,6.3-4.1c2-1.4,4-3,6.2-4.6c0.6-0.5,1.1-0.9,1.7-1.3c0.5-0.3,1.1-0.8,1.6-1.5h0.3v-0.1c0.1-0.2,0.2-0.4,0.3-0.5
				c0.1-0.1,0.2-0.3,0.3-0.6c0.1-0.1,0.1-0.3,0.1-0.5s0.1-0.4,0.2-0.5c0.2-0.1,0.4-0.1,0.7-0.1c0.3,0,0.4,0,0.6,0h1.3
				c0.3,0.1,0.6,0.3,1.1,0.5c0.4,0.2,0.7,0.6,0.7,1.3c-0.2,0.6-0.5,1.1-0.8,1.6c-0.4,0.5-0.7,1.1-1.1,1.6c-0.1,0.6-0.4,1.1-0.7,1.5
				v0.5c-0.3,0.1-0.5,0.4-0.6,0.9c-0.1,0.3-0.1,0.6-0.1,0.8c0,0.2-0.1,0.5-0.3,0.9l-0.6,2.1c0,0.8,0.2,1.3,0.5,1.4
				c0.3,0.1,0.7,0.1,1.2-0.1c0.5-0.2,1-0.5,1.6-0.8c0.6-0.4,1.1-0.6,1.5-0.8c1.1-0.4,2.2-1,3.4-1.7
				C581.1,602.5,582.2,601.8,583.1,601.3z"/>
			<path class="st0" d="M584.3,600.1c0.2-0.4,0.3-0.8,0.4-1c0.1-0.2,0.2-0.4,0.2-0.6c0.1-0.2,0.1-0.4,0.2-0.6
				c0.1-0.2,0.2-0.6,0.4-1.1c0.3-0.5,0.5-1,0.8-1.5c0.3-0.5,0.5-0.9,0.9-1.3c0-0.1,0-0.2,0-0.3c0-0.1,0-0.2,0-0.2
				c0.1-0.1,0.2-0.3,0.3-0.5c0.1-0.2,0.2-0.4,0.2-0.6c0.3-0.1,0.6-0.4,0.7-0.8c0.2-0.4,0.4-0.8,0.7-1c-0.1-0.1-0.1-0.2,0-0.3
				c0-0.1,0-0.2,0-0.3c0.6-0.4,1.2-0.7,1.7-1.1c0.6-0.3,1.2-0.4,1.8-0.3c0.6,0.3,1,0.8,1.3,1.3c0.2,0.6,0.2,1.2-0.1,1.8
				c-0.3,0.5-0.5,1-0.9,1.3c-0.3,0.8-0.6,1.4-0.8,1.9c-0.2,0.5-0.4,0.9-0.6,1.4c-0.2,0.5-0.4,0.9-0.6,1.4c-0.2,0.5-0.5,1.2-0.9,2
				c-0.3,0.8-0.6,1.3-0.9,1.6s-0.6,0.9-1,1.8c-0.1,0.3-0.3,0.8-0.6,1.5c-0.4,0.7-0.6,1.3-0.8,1.8c-0.2,0.5-0.2,0.9,0,1.1
				c0.2,0.2,0.8-0.1,1.7-0.8c2.2-1.5,4.3-3.3,6.2-5.3c1.9-2,3.9-4,5.9-6c0.3-0.3,0.6-0.7,1-1.3c0.4-0.5,0.8-1,1.2-1.6
				c0.4-0.5,0.7-1,1-1.4c0.3-0.4,0.5-0.7,0.7-0.8c0.2-0.2,0.5-0.4,0.9-0.5c0.4-0.2,0.8-0.2,1.1,0c0.4,0.2,0.6,0.5,0.9,1.1
				c0.2,0.5,0.3,1.4,0.1,2.6c-0.3,0.8-0.6,1.4-0.8,2c-0.2,0.5-0.4,1.2-0.5,1.9c-0.1,0.5-0.3,1.1-0.4,2c-0.2,0.9-0.3,1.8-0.4,2.7
				c-0.1,0.9-0.1,1.7,0,2.5c0.1,0.7,0.3,1.2,0.6,1.3c0.8,0.3,1.5,0.4,2.2,0.2c0.7-0.2,1.4-0.5,2.1-0.9c2-1,3.4-1.7,4.2-2.1
				c0.8-0.4,1.5-0.8,2-1.1c0.5-0.3,1.2-0.6,2-0.9c0.8-0.3,2.2-0.8,4.3-1.5c-0.1,0.1-0.1,0.2-0.1,0.5c-0.1,0.1-0.1,0.1,0.1,0
				c0.2,0,0.3,0,0.4,0c-0.1,0.5-0.5,1-1.1,1.4c-0.6,0.4-1.1,0.8-1.4,1.1c-0.1,0-0.2,0.1-0.5,0.4c-0.3,0.3-0.4,0.4-0.5,0.4l-5.6,3.5
				c-1.5,0.9-2.8,1.7-4,2.4c-1.2,0.7-1.9,1.1-2.1,1.1c-0.5,0.2-0.9,0.3-1.1,0.4c-0.2,0.1-0.6,0.2-1.1,0.3c-0.5,0.1-1,0.2-1.5,0.1
				c-0.5-0.1-0.9-0.2-1.3-0.3c-0.7-0.3-1.2-0.7-1.4-1.3c-0.3-0.6-0.4-1.3-0.4-2.1c0-0.8,0-1.6,0.1-2.4c0.1-0.8,0.2-1.5,0.3-2.1
				c-0.1-0.4-0.1-0.7,0-1c0.1-0.3,0.2-0.5,0.3-0.9c-0.3,0.2-0.5,0.4-0.7,0.7c-0.2,0.3-0.5,0.5-0.8,0.6c-0.2,0.3-0.4,0.4-0.5,0.5
				c-0.2,0.1-0.3,0.1-0.4,0.2c-0.1,0.1-0.3,0.2-0.4,0.3c-0.2,0.1-0.3,0.3-0.4,0.6c-0.2,0-0.3,0-0.3,0.1c0,0.1-0.1,0.1-0.1,0.2
				c-0.1,0-0.1,0.1-0.1,0.4c-0.7,0.6-1.3,1.1-1.9,1.4s-1.2,0.8-1.8,1.5c-0.6,0.3-1,0.7-1.3,1.2c-0.3,0.5-0.7,0.9-1.3,1.2
				c-0.3,0.4-0.7,0.7-1.3,0.9c-0.1,0.1-0.2,0.3-0.3,0.4c-0.1,0.1-0.3,0.2-0.4,0.2c-0.1,0.5-0.4,0.8-0.8,0.9
				c-0.4,0.2-0.7,0.4-1.1,0.8c-2.4,0.4-4.1,0.2-5-0.6c-0.9-0.8-1.3-1.8-1.3-3.1c0-1.3,0.3-2.8,0.9-4.4
				C583,603,583.6,601.5,584.3,600.1z"/>
			<path class="st0" d="M617.4,616.9L617.4,616.9c-0.6-0.3-0.9-0.5-1-0.9c-0.1-0.3-0.1-0.6-0.1-1c0.1-2.4,0.4-4.7,0.8-6.9
				c0.4-2.2,0.9-4.4,1.4-6.5c0.6-2.5,1.4-4.9,2.2-7.3c0.8-2.4,1.6-4.8,2.3-7.2c0.3-1,0.6-1.9,0.9-2.8c0.3-0.9,0.6-1.8,0.9-2.7
				c-0.8,0.1-1.6,0.3-2.4,0.5c-0.7,0.2-1.7,0.6-2.7,1.1c-0.4,0.1-0.8,0.3-1.3,0.4c-0.5,0.2-0.9,0.3-1.4,0.4
				c-0.2,0.1-0.4,0.3-0.6,0.5c-0.2,0.2-0.5,0.3-0.7,0.4c-0.3,0.1-0.6,0.1-0.8,0.1c-0.2,0-0.4,0-0.4-0.1c-0.3-0.2-0.5-0.5-0.5-0.9
				s0.1-0.8,0.2-1.3c0.1-0.3,0.3-0.6,0.4-1c0.2-0.3,0.3-0.6,0.4-0.9l1.2-0.5c0.4-0.1,1.1-0.3,1.9-0.4c0.8-0.2,1.6-0.3,2.5-0.5
				c0.8-0.2,1.6-0.4,2.3-0.5c0.7-0.1,1.2-0.2,1.3-0.2c0.3-0.1,0.6-0.1,0.9-0.2c0.3-0.1,0.6-0.2,0.9-0.3c0.7-2,1.5-4,2.3-5.9
				c0.8-1.9,1.7-3.9,2.6-5.9c0.4-0.8,0.9-1.7,1.2-2.6c0.4-0.9,0.7-1.7,1-2.6c0.3-0.5,0.5-1,0.7-1.4c0.1-0.2,0.2-0.4,0.2-0.6
				s0.1-0.4,0.2-0.5c0.1-0.3,0.2-0.6,0.4-0.9s0.4-0.7,0.5-1.1c0.1-0.3,0.2-0.7,0.3-1.1c0.1-0.4,0.2-0.7,0.4-0.9
				c0.1-0.2,0.5-0.4,1.3-0.7c0.7-0.3,1.3-0.4,1.8-0.4c0.6,0,1.3,0.1,1.9,0.4c0.6,0.3,1,0.7,1.2,1.2c0.1,0.3,0.1,0.5,0,0.8
				c-0.2,0.3-0.4,0.6-0.6,0.9c-0.1,0.3-0.2,0.5-0.2,0.8c0,0.3-0.1,0.5-0.2,0.9c-0.7,1.5-1.4,3.1-2,4.7c-0.6,1.6-1.4,3.1-2.2,4.6
				c-0.6,1.4-1.3,2.8-2,4.1c-0.7,1.3-1.3,2.7-2,4.1h0.1c0.8-0.2,1.5-0.3,2.3-0.4c0.8-0.1,1.5-0.2,2.2-0.3c1-0.1,1.7-0.2,2.1-0.2
				c0.4,0,0.7,0,1,0c0.3,0,0.6,0,1,0c0.4,0,1.2-0.1,2.3-0.2c0.7-0.1,1.4-0.1,2.2-0.1c0.7,0,1.5,0.1,2.4,0.4
				c-0.1,0.1-0.2,0.2-0.1,0.3c0.1,0.1,0.1,0.2,0.2,0.3c0.1,0,0.1,0,0.1-0.1c0-0.1,0-0.2,0.1-0.2c-0.1,0.1-0.2,0.3-0.2,0.6
				c0,0.3,0,0.4-0.1,0.5c-0.3,0.2-0.6,0.3-0.9,0.3c-0.3,0-0.5,0.1-0.7,0.2l-0.1,0.2c-2.3,0.3-4.8,0.6-7.6,1
				c-2.7,0.3-5.3,0.8-7.8,1.3l-0.3,1c-1.1,3.4-2.2,6.8-3.4,10.2c-1.2,3.4-2.2,6.8-3.2,10.2c-0.1,0.5-0.3,1-0.6,1.5
				c-0.3,0.5-0.5,1.1-0.6,1.6c-0.3,0.5-0.5,1.1-0.6,1.7c-0.1,0.6-0.3,1.2-0.5,1.7c-0.1,0.1-0.2,0.3-0.3,0.5
				c-0.2,0.2-0.2,0.4-0.2,0.6c-0.1,0.3-0.2,0.6-0.3,1c-0.1,0.3-0.1,0.6-0.2,1c-0.1,0.3-0.1,0.7-0.1,1.1c0,0.4,0,0.7-0.1,0.9l-0.6,1
				c-0.1,0.3-0.2,0.6-0.2,1c0,0.3,0,0.6-0.1,1c-0.3,0.1-0.5,0.2-0.4,0.3c0.1,0.1-0.1,0.2-0.4,0.2c-0.2,0.1-0.5,0.2-0.8,0.2
				C617.9,616.7,617.6,616.8,617.4,616.9z"/>
			<path class="st0" d="M650.1,599.4c-0.1,0.2-0.6,0.6-1.4,1.3c-0.8,0.7-1.7,1.4-2.7,2.2c-1,0.8-2,1.5-2.9,2.2
				c-0.9,0.7-1.6,1.1-1.9,1.3c-0.3,0.3-0.8,0.5-1.5,0.6c-0.7,0.2-1.4,0-2.1-0.3c-1.9-0.1-3.5-0.6-4.6-1.7c-0.2-0.3-0.3-0.8-0.3-1.3
				c0-0.6,0-1.1,0.1-1.6c0.1-0.4,0.3-0.8,0.4-1.2c0.2-0.4,0.3-0.8,0.4-1.2c0.1-0.1,0.2-0.3,0.2-0.4c0-0.1,0-0.2,0.1-0.3
				c0.1-0.1,0.1-0.2,0.2-0.3c0.1-0.1,0.1-0.2,0.2-0.3c0.1-0.3,0.2-0.5,0.3-0.7c0.1-0.2,0.2-0.5,0.4-0.7c0.2-0.4,0.4-0.9,0.8-1.4
				c0.3-0.5,0.7-1.1,1-1.7c0.4-0.6,0.7-1.1,1.1-1.6c0.4-0.5,0.6-0.9,0.8-1.3c0.3-0.4,0.8-0.7,1.5-1s1.4-0.3,2.2,0
				c0.6,0.3,1.1,0.7,1.5,1.3c0.4,0.6,0.4,1.2,0,1.8l-0.5,0.3c-0.1,0.2-0.3,0.5-0.5,0.9c-0.2,0.4-0.4,0.8-0.6,1.2
				c-0.2,0.4-0.4,0.8-0.6,1.1c-0.2,0.4-0.3,0.6-0.4,0.6c-0.1,0.5-0.3,0.8-0.6,1c-0.3,0.2-0.4,0.6-0.4,1c-0.3,0.5-0.6,0.9-0.7,1.4
				c-0.2,0.5-0.4,1-0.6,1.6c0.1,0.1,0.3,0.1,0.5,0c0.2-0.1,0.3-0.2,0.4-0.3c2.1-1.2,4.1-2.6,5.9-4c1.8-1.5,3.7-3,5.5-4.4
				c0.1-0.1,0.2-0.1,0.2-0.2c0-0.1,0.1-0.2,0.2-0.3l0.6-0.3c0-0.4,0-0.8,0.1-1.1c0.1-0.3,0.2-0.6,0.3-0.9c0.6-0.3,1.4-0.5,2.2-0.5
				c0.8,0,1.6,0.2,2.3,0.5c0.4,0.4,0.6,0.9,0.7,1.4s0.1,1.2,0,1.7s-0.2,1.1-0.4,1.7c-0.2,0.5-0.3,1-0.3,1.4
				c-0.6,2.2-1.2,4.3-1.8,6.1c-0.5,1.8-1.1,3.6-1.7,5.3c0.3,0.1,0.5,0,0.7-0.1c0.1-0.1,0.3-0.3,0.6-0.5c1.7-1.1,3.2-2,4.4-2.8
				c1.2-0.8,2.4-1.5,3.5-2.3c1.1-0.7,2.3-1.5,3.6-2.3c1.3-0.8,2.9-1.8,4.7-2.8c1.9-1.1,3.7-2.2,5.6-3.2c1.9-1.1,4-1.9,6.2-2.7
				c-0.1,0.1-0.2,0.2-0.3,0.2c-0.2,0-0.3,0.1-0.4,0.2c0.2,0.1,0.4,0.1,0.7-0.1c0.3-0.2,0.6-0.2,0.8-0.1c-0.1,0.5-0.4,0.7-0.9,0.8
				c-0.5,0.1-1,0.3-1.5,0.6c-0.2,0.3-0.5,0.5-0.8,0.7c-0.4,0.2-0.7,0.4-1,0.5l0.1,0.1c-0.6,0.4-1.2,0.8-2,1.1
				c-0.7,0.4-1.3,0.8-1.6,1.3c-0.2,0.1-0.3,0.1-0.4,0.2c-0.1,0.1-0.2,0.1-0.3,0c-0.8,0.5-1.6,1-2.4,1.6c-0.8,0.5-1.6,1.1-2.4,1.6
				c-0.8,0.6-1.3,0.9-1.5,1.1c-0.2,0.2-0.4,0.3-0.5,0.4c-0.1,0.1-0.3,0.2-0.6,0.4c-0.3,0.2-0.8,0.5-1.6,1.1
				c-0.3,0.3-0.5,0.5-0.6,0.4c-0.2-0.1-0.6,0.3-1.3,1c-1.2,0.7-2.1,1.3-2.8,1.7c-0.7,0.5-1.4,0.9-2,1.4c-0.6,0.5-1.1,0.9-1.3,1.1
				c-0.1,0-0.5,0.2-1.1,0.7c-0.6,0.5-1.3,1-2,1.5c-0.7,0.6-1.3,1.1-1.9,1.7s-0.9,0.9-0.9,1.1c-0.2,0.3-0.7,0.8-1.6,1.4
				c-0.9,0.6-1.6,1.4-2.1,2.3c-0.6,1.4-1.2,2.9-2,4.3c-0.7,1.5-1.5,2.9-2.3,4.2c-0.8,1.3-1.5,2.6-2.2,3.8c-0.7,1.2-1.3,2.1-1.6,2.9
				c-0.1,0.1-0.4,0.6-1.1,1.5c-0.6,1-1.5,2.2-2.6,3.6c-1.1,1.4-2.2,3-3.5,4.6c-1.3,1.7-2.6,3.3-3.8,4.8s-2.4,2.9-3.6,4
				c-1.1,1.2-2,2-2.7,2.4c-0.9,0.5-1.6,1-2,1.3c-0.4,0.4-1,0.7-1.7,1c-0.6,0.4-1.4,0.7-2.3,1c-0.9,0.3-1.7,0.5-2.6,0.7
				c-0.8,0.2-1.6,0.2-2.3,0.2c-0.7,0-1.1-0.2-1.3-0.4c0.1-0.1,0.1-0.2-0.2-0.2c-0.3,0-0.4-0.2-0.4-0.5h-0.4
				c-0.4-0.5-0.7-1.3-0.7-2.3c0-1,0-1.9,0.1-2.7c-0.1-0.3,0-1,0.4-1.9s1-2.1,1.8-3.5c0.8-1.3,1.6-2.8,2.6-4.3c1-1.5,1.9-3,2.9-4.3
				c1-1.3,1.9-2.6,2.7-3.6c0.8-1.1,1.5-1.8,1.9-2.3c0.7-0.8,1.9-2.1,3.6-3.7c1.7-1.6,3.4-3.3,5.3-5c1.9-1.7,3.7-3.3,5.4-4.7
				c1.8-1.4,3.1-2.5,4.1-3c-0.1,0-0.1,0,0,0c0,0,0.1,0,0.2,0c-0.1,0-0.1,0-0.1,0c0,0,0,0-0.1,0c0.1-0.1,0.1-0.1,0.2-0.1h0.1l4-2.6
				c1-2.2,2-4.4,2.8-6.5C648.7,604.1,649.5,601.8,650.1,599.4z M632.3,626.8c-0.7,0.6-1.7,1.5-2.9,2.7s-2.5,2.7-4,4.4
				c-1.4,1.7-2.8,3.5-4.3,5.3c-1.4,1.9-2.7,3.7-3.9,5.5c-1.1,1.8-2,3.4-2.6,4.9c-0.6,1.5-0.8,2.6-0.5,3.5c0,0.4,0.1,0.7,0.3,0.9
				c0.5,0.1,0.8,0,1.1-0.1c0.3-0.1,0.6-0.3,0.9-0.5c0.5-0.1,0.9-0.3,1.1-0.6c0.2-0.3,0.6-0.5,1.1-0.7c0.5-0.6,1-1.1,1.5-1.7
				c0.5-0.5,1-1.1,1.5-1.7c0.6-0.6,1.2-1.2,1.7-1.9c0.6-0.7,1.1-1.4,1.6-2.1l2.3-2.6l3.2-4.9c0.1-0.1,0.1-0.1,0.1-0.2
				c0-0.1,0.1-0.2,0.2-0.3l1-1.3c0.2-0.3,0.8-1.1,1.7-2.6c1-1.5,2-3.1,3.1-4.9c1.1-1.8,2.2-3.5,3.1-5.2c1-1.7,1.6-2.9,1.8-3.6
				L632.3,626.8z"/>
			<path class="st0" d="M742.3,620.3c-0.1,0.2-0.4,0.4-0.8,0.7c-0.4,0.3-0.7,0.4-0.9,0.4c-0.3,0.4-0.7,0.7-1.2,0.8
				c-0.5,0.1-0.8,0.3-1,0.8c-0.1,0-0.1,0-0.1,0c0,0-0.1,0-0.2,0c-0.4,0.2-0.9,0.5-1.5,1c-0.6,0.4-1.2,0.9-1.9,1.3
				c-0.6,0.4-1.2,0.8-1.8,1.2c-0.5,0.4-0.9,0.5-1.1,0.5c-0.1,0.3-0.4,0.4-0.7,0.6c-0.3,0.1-0.6,0.3-0.9,0.4
				c-0.5,0.3-0.9,0.5-1.3,0.8c-0.5,0.3-0.9,0.5-1.4,0.7c-0.6,0.6-1.4,1-2.2,1.3c-6.7,4.2-12.5,6.9-17.6,7.9c-5,1-9,0.7-12-1.1
				c-3-1.8-4.8-4.8-5.5-9.2c-0.7-4.4-0.2-9.9,1.7-16.5c0-0.2,0-0.3-0.1-0.3c0.2-0.2,0.3-0.4,0.2-0.7c0-0.3,0.1-0.4,0.3-0.6
				c-0.1-0.3-0.1-0.6,0.1-0.7c0.2-0.2,0.3-0.4,0.3-0.7c0.1-0.1,0.2-0.3,0.4-0.8c0.2-0.4,0.4-0.9,0.6-1.5c0.2-0.5,0.4-1.1,0.6-1.5
				c0.2-0.5,0.3-0.8,0.3-0.9c0.7-0.9,1.3-1.9,1.7-2.9c0.4-1.1,1-2,1.5-2.7v-0.4c0.4-1.3,1.4-3.2,2.8-5.5c1.4-2.3,3.2-4.9,5.3-7.7
				s4.5-5.7,7.2-8.7c2.7-3,5.4-5.9,8.3-8.6c2.9-2.7,5.8-5.2,8.7-7.4c2.9-2.2,5.7-3.9,8.4-5s5.2-1.7,7.5-1.5c2.3,0.2,4.2,1.2,5.8,3.1
				c0.4,0.4,0.8,0.9,1.2,1.6c0.3,0.7,0.6,1.5,0.8,2.3c0.2,0.8,0.4,1.7,0.4,2.5c0.1,0.8,0.1,1.5,0,2.1c0,0.3-0.1,0.8-0.3,1.4
				c-0.2,0.6-0.4,1.1-0.5,1.4c-0.1,0.4-0.3,0.8-0.5,1.1c-0.2,0.4-0.4,0.7-0.5,1c-0.5,1.1-0.8,1.9-1.1,2.3c-0.1,0.1-0.3,0.2-0.5,0.2
				c-0.2,0-0.2,0.1-0.1,0.2c-0.3,0-0.5,0.1-0.6,0.2c-0.1,0.1-0.2,0.2-0.3,0.3c-0.3,0.1-0.5,0.1-0.7,0c-0.2-0.1-0.4-0.1-0.6,0
				c-1.3-0.5-2.2-1.3-2.6-2.4c-0.3-0.8-0.3-1.4,0.1-2c0.4-0.6,0.8-1.1,1-1.6c0.1-0.3,0.2-0.6,0.2-0.9c0-0.3,0.1-0.5,0.2-0.9
				c0.3-0.8,0.6-1.7,0.8-2.5c0.2-0.8,0.3-1.6,0.2-2.3c0-0.7-0.3-1.2-0.9-1.6c-0.6-0.4-1.4-0.4-2.3-0.2c-0.9,0.2-1.7,0.5-2.5,0.8
				c-0.8,0.3-1.5,0.7-2.3,1.1c-0.7,0.4-1.5,0.8-2.2,1.2c-0.7,0.4-1.5,0.7-2.3,1.1c-0.2,0.4-0.5,0.6-0.8,0.8c-0.3,0.1-0.6,0.3-1,0.6
				c-0.3,0.1-0.7,0.4-1,0.7c-0.4,0.3-0.7,0.6-1.1,0.8c-0.1,0.1-0.3,0.2-0.4,0.2c-0.2,0-0.3,0.1-0.4,0.2c-1.1,1-2.2,1.9-3.5,2.9
				c-0.3,0.3-0.7,0.6-1.1,0.8c-0.4,0.2-0.7,0.5-1.1,0.8c-0.3,0.4-0.6,0.7-1,1.1c-0.4,0.3-0.8,0.6-1.1,1c-0.2,0.1-0.3,0.3-0.4,0.5
				c-0.1,0.2-0.1,0.4-0.2,0.5c-0.6,0.5-1.2,1-1.7,1.5c-0.6,0.5-1.1,1.1-1.6,1.6c-0.3,0.2-0.5,0.4-0.7,0.7c-0.2,0.3-0.4,0.5-0.5,0.8
				l-0.4,0.2c-0.1,0.1-0.1,0.2,0,0.3c0,0.1,0,0.1,0,0.2c-0.4,0.4-1,1.1-1.9,2.2c-0.9,1.1-1.8,2.2-2.7,3.4c-1,1.2-1.9,2.3-2.7,3.5
				c-0.8,1.1-1.4,1.9-1.7,2.5c-0.1,0.3-0.2,0.5-0.3,0.7c-0.1,0.2-0.2,0.4-0.4,0.5c-1.1,1.6-2.1,3.2-3.1,4.9c-1,1.7-1.9,3.4-2.8,5.1
				c-0.4,0.5-0.7,0.9-0.8,1.4c-0.2,0.5-0.4,0.9-0.7,1.2h0.2c-0.1,0.1-0.2,0.2-0.2,0.3c0,0.1-0.1,0.2-0.2,0.1
				c0.1,0.3,0.1,0.5-0.1,0.6c-0.2,0.1-0.2,0.3-0.1,0.5c-0.5,0.7-0.9,1.4-1.1,2.1c-0.2,0.7-0.6,1.5-1.1,2.3c-0.2,1-0.5,1.9-0.9,2.7
				c-0.4,0.9-0.7,1.8-0.8,2.9c-0.2,0.3-0.3,0.5-0.3,0.8c0,0.3-0.1,0.5-0.2,0.9c-0.3,1.4-0.6,2.8-0.8,4.2c-0.2,1.4-0.3,2.9-0.1,4.7
				c0,1.3,0.3,2.6,1,3.9c0.7,1.3,1.5,2.3,2.4,2.8c0.8,0.5,1.8,0.7,3.2,0.6c1.4-0.1,2.5-0.3,3.4-0.6c0.8-0.3,1.6-0.5,2.5-0.6
				c0.9-0.2,1.7-0.4,2.5-0.6c1.8-0.7,3.5-1.5,5.3-2.4c1.7-0.9,3.4-1.7,5.1-2.5c0.4-0.3,0.8-0.5,1.3-0.7c0.5-0.2,1-0.5,1.5-0.7
				c0.3-0.3,0.8-0.6,1.4-0.8c0.6-0.2,1.1-0.5,1.4-1h0.2l19.3-11.3c3.7-2.1,7-4,10.1-5.7c3-1.7,5.7-3,7.8-4c2.2-1,3.7-1.7,4.7-1.9
				c1-0.3,1.3-0.1,0.8,0.6c-0.5,0.6-1.7,1.8-3.9,3.4c-2.1,1.6-5.2,3.8-9.3,6.6c0,0.2-0.3,0.5-1,0.9c-0.6,0.4-1.2,0.7-1.6,1
				c0.1,0,0.1,0,0.1,0c0,0,0.1,0,0.1,0c-0.7,0.4-1.6,0.9-2.6,1.6c-1.1,0.7-2.1,1.4-3.2,2.2c-1.1,0.7-2.1,1.4-3.1,2
				C743.5,619.6,742.8,620.1,742.3,620.3z"/>
			<path class="st0" d="M777.2,609.8c-0.5,0.3-1.1,0.6-1.7,0.7c-0.6,0.2-1.2,0.3-1.8,0.5c-0.8,0.2-1.6,0.4-2.6,0.6
				c-1,0.2-1.9,0.3-2.9,0.2c-1,0-1.9-0.2-2.7-0.6c-0.9-0.4-1.6-0.9-2.2-1.8c-0.5-0.6-0.7-1.3-0.8-2.1c-0.1-0.8,0-1.7,0.2-2.6
				c0.2-0.9,0.5-1.7,0.8-2.6c0.4-0.9,0.7-1.7,1.1-2.4c0.3-0.3,0.6-0.6,0.8-1c0.2-0.4,0.3-0.7,0.4-1c1.3-1.6,2.7-3.1,4.2-4.6
				c1.4-1.5,2.9-2.6,4.5-3.5c0.7-0.4,1.4-0.8,2.2-1.2c0.8-0.3,1.5-0.6,2.1-1c0.3-0.1,0.5-0.3,0.6-0.4c0.2-0.1,0.4-0.2,0.7-0.2
				c2.3,0,3.8,0.4,4.5,1.2c0.7,0.8,1.1,1.6,1.1,2.4c-0.1,0.3-0.3,0.5-0.7,0.9c-0.4,0.3-0.7,0.6-0.9,1c-0.3,0.3-0.6,0.6-0.9,0.9
				c-0.3,0.3-0.5,0.6-0.6,0.8c-2.6,2.2-5.1,4.2-7.7,6c-0.6,0.5-1.5,0.9-2.6,1.1c-1.1,0.2-2.1,0.2-3.2,0.1c-0.4,0.4-0.8,0.9-1.2,1.5
				c-0.4,0.6-0.7,1.3-0.9,1.9c-0.2,0.7-0.3,1.3-0.3,2c0,0.7,0.3,1.2,0.8,1.7c1.3,0.1,2.4,0,3.4-0.4c1-0.4,1.9-0.7,2.8-1
				c0.7-0.2,1.4-0.4,2.2-0.7c0.8-0.3,1.4-0.5,2-0.8c1.3-0.6,2.5-1.2,3.3-1.5c0.9-0.4,1.7-0.7,2.5-1.1c0.8-0.3,1.6-0.7,2.4-1.1
				c0.8-0.4,1.9-0.9,3.2-1.6c1-0.5,2.1-1,3.1-1.6c1.1-0.5,2.1-1.1,3-1.6c0.2-0.1,0.3-0.2,0.2-0.2c0,0-0.1,0-0.1,0
				c-0.1,0-0.1,0.1-0.1,0.1c0,0,0.1,0,0.4,0c0.1,0,0.1,0,0.2-0.1c0.1-0.1,0.2-0.1,0.2-0.1c0.6,0,1,0,1.2,0.1
				c0.2,0.1,0.3,0.3,0.2,0.5c0,0.2-0.2,0.5-0.4,0.8c-0.2,0.3-0.5,0.6-0.7,1c0.1,0,0,0.1-0.2,0.2c-0.2,0.2-0.5,0.3-0.8,0.5
				c-0.3,0.2-0.7,0.4-1.1,0.7c-0.7,0.5-1.6,1.1-2.6,1.6c-1,0.6-2.1,1.1-3.1,1.7c-1,0.5-2,1-2.9,1.5c-0.9,0.5-1.6,0.8-2,1
				L777.2,609.8z M770.2,599.9c0.6,0,1.1-0.2,1.7-0.5c0.5-0.3,1.1-0.6,1.6-1c1.3-1,2.6-2.2,4-3.4c1.3-1.3,2.6-2.5,3.7-3.8
				c0.1,0,0.2-0.1,0.2-0.3c-2.3,0.8-4.4,2.1-6.1,3.7C773.4,596.2,771.8,598,770.2,599.9z"/>
			<path class="st0" d="M797.7,602c0.4-0.1,0.8-0.3,1.2-0.6c0.3-0.4,0.7-0.7,1.1-0.9c1.7-1.5,3.3-3,4.8-4.4c1.5-1.5,3.3-2.8,5.4-4
				c0.7-0.4,1.5-0.9,2.4-1.4c0.9-0.5,1.8-0.8,2.7-0.9c0.6,0,1.3,0.2,2.1,0.7c0.7,0.5,1.1,1,1.2,1.6c0.1,0.7,0,1.4-0.2,2.2
				c-0.2,0.8-0.4,1.5-0.6,2.2c-0.1,0.5-0.2,1.3-0.4,2.5c-0.2,1.2-0.5,2.4-0.7,3.7c-0.2,1.3-0.4,2.5-0.5,3.7c-0.1,1.2-0.2,2-0.1,2.5
				c0.6-0.3,1.1-0.5,1.5-0.7c0.4-0.2,1-0.4,1.6-0.8c0.7-0.3,1.1-0.5,1.3-0.6c0.2-0.1,0.3-0.1,0.3-0.1c0.1,0,0.2-0.1,0.3-0.2
				c0.1-0.1,0.5-0.3,1.3-0.7c0.4-0.4,0.9-0.8,1.3-1.1c0.4-0.4,0.9-0.6,1.3-0.8c0.3-0.1,0.6-0.2,1.1-0.2c0.5-0.3,1-0.6,1.5-0.9
				c0.5-0.3,0.9-0.5,1.2-0.9c0.6,0.3,0.9,0.5,0.9,0.7c0,0.2-0.1,0.5-0.2,0.8c-0.5,0.6-1.1,1.1-1.9,1.5c-0.4,0.5-0.7,0.8-1,1.1
				c-0.3,0.3-0.6,0.5-1.1,0.7c-0.7,0.6-1.2,0.9-1.3,1.1c-0.2,0.2-0.3,0.3-0.4,0.4s-0.3,0.2-0.5,0.3c-0.2,0.1-0.7,0.5-1.5,1
				c-0.7,0.4-1.5,0.9-2.4,1.5c-0.9,0.6-1.7,1-2.5,1.3c-0.6,0.1-1.2,0.2-1.8,0.3c-0.5,0.1-1,0.1-1.5,0.1c-0.7,0.1-1.3-0.2-1.9-1.1
				c-0.5-0.9-0.8-1.7-0.8-2.4c0-0.3,0.1-1,0.3-2c0.2-1,0.4-2.1,0.6-3.2c0.2-1.1,0.4-2.2,0.7-3.2c0.2-1,0.4-1.7,0.4-2.1
				c0.1-0.9,0.2-1.7,0.4-2.4c0.2-0.7,0.4-1.4,0.5-2.1c-0.5,0.1-1,0.4-1.3,0.7c-0.4,0.3-0.8,0.6-1.2,1c-1.2,0.9-2.3,1.8-3.4,2.7
				c-1.1,0.9-2.2,1.9-3.3,3c-0.6,0.6-1.3,1.2-2.1,1.7c-0.8,0.6-1.5,1.2-2.2,1.9c-2.2,2.3-4,4.2-5.3,5.8c-1.3,1.5-2.3,2.4-3,2.5
				c-0.5,0.1-1.1,0-1.8-0.4c-0.7-0.4-1.1-0.8-1.2-1.3c-0.1-0.3,0-0.6,0.1-1.2c0.2-0.5,0.3-1,0.5-1.4c0.6-2.7,1.4-5.1,2.4-7.3
				c1-2.2,2-4.4,2.9-6.7c0.1-0.3,0.3-0.7,0.6-1.1c0.3-0.4,0.4-0.7,0.6-1.1c0.1-0.4,0.2-0.9,0.3-1.3c0.1-0.4,0.1-0.8,0.2-1.1
				c0.1-0.1,0.3-0.3,0.4-0.5c0.2-0.2,0.3-0.4,0.5-0.5c0.7-0.5,1.5-0.6,2.4-0.4c0.9,0.3,1.4,0.7,1.5,1.3c0.3,0.8,0.3,1.4,0,2
				c-0.3,0.6-0.6,1.1-1,1.6c-0.1,0.4-0.2,0.8-0.2,1.2s-0.1,0.7-0.2,1.1c-0.4,0.9-0.8,1.8-1.2,2.7C798.5,599.9,798.1,600.9,797.7,602
				z"/>
			<path class="st0" d="M826.9,616.9L826.9,616.9c-0.6-0.3-0.9-0.5-1-0.9c-0.1-0.3-0.1-0.6-0.1-1c0.1-2.4,0.4-4.7,0.8-6.9
				c0.4-2.2,0.9-4.4,1.4-6.5c0.6-2.5,1.4-4.9,2.2-7.3c0.8-2.4,1.6-4.8,2.3-7.2c0.3-1,0.6-1.9,0.9-2.8c0.3-0.9,0.6-1.8,0.9-2.7
				c-0.8,0.1-1.6,0.3-2.4,0.5c-0.7,0.2-1.7,0.6-2.7,1.1c-0.4,0.1-0.8,0.3-1.3,0.4c-0.5,0.2-0.9,0.3-1.4,0.4
				c-0.2,0.1-0.4,0.3-0.6,0.5c-0.2,0.2-0.5,0.3-0.7,0.4c-0.3,0.1-0.6,0.1-0.8,0.1c-0.2,0-0.4,0-0.4-0.1c-0.3-0.2-0.5-0.5-0.5-0.9
				s0.1-0.8,0.2-1.3c0.1-0.3,0.3-0.6,0.4-1c0.2-0.3,0.3-0.6,0.4-0.9l1.2-0.5c0.4-0.1,1.1-0.3,1.9-0.4c0.8-0.2,1.6-0.3,2.5-0.5
				c0.8-0.2,1.6-0.4,2.3-0.5c0.7-0.1,1.2-0.2,1.3-0.2c0.3-0.1,0.6-0.1,0.9-0.2c0.3-0.1,0.6-0.2,0.9-0.3c0.7-2,1.5-4,2.3-5.9
				c0.8-1.9,1.7-3.9,2.6-5.9c0.4-0.8,0.9-1.7,1.2-2.6c0.4-0.9,0.7-1.7,1-2.6c0.3-0.5,0.5-1,0.7-1.4c0.1-0.2,0.2-0.4,0.2-0.6
				s0.1-0.4,0.2-0.5c0.1-0.3,0.2-0.6,0.4-0.9s0.4-0.7,0.5-1.1c0.1-0.3,0.2-0.7,0.3-1.1c0.1-0.4,0.2-0.7,0.4-0.9
				c0.1-0.2,0.5-0.4,1.3-0.7c0.7-0.3,1.3-0.4,1.8-0.4c0.6,0,1.3,0.1,1.9,0.4c0.6,0.3,1,0.7,1.2,1.2c0.1,0.3,0.1,0.5,0,0.8
				c-0.2,0.3-0.4,0.6-0.6,0.9c-0.1,0.3-0.2,0.5-0.2,0.8c0,0.3-0.1,0.5-0.2,0.9c-0.7,1.5-1.4,3.1-2,4.7c-0.6,1.6-1.4,3.1-2.2,4.6
				c-0.6,1.4-1.3,2.8-2,4.1c-0.7,1.3-1.3,2.7-2,4.1h0.1c0.8-0.2,1.5-0.3,2.3-0.4c0.8-0.1,1.5-0.2,2.2-0.3c1-0.1,1.7-0.2,2.1-0.2
				c0.4,0,0.7,0,1,0c0.3,0,0.6,0,1,0c0.4,0,1.2-0.1,2.3-0.2c0.7-0.1,1.4-0.1,2.2-0.1c0.7,0,1.5,0.1,2.4,0.4
				c-0.1,0.1-0.2,0.2-0.1,0.3c0.1,0.1,0.1,0.2,0.2,0.3c0.1,0,0.1,0,0.1-0.1c0-0.1,0-0.2,0.1-0.2c-0.1,0.1-0.2,0.3-0.2,0.6
				c0,0.3,0,0.4-0.1,0.5c-0.3,0.2-0.6,0.3-0.9,0.3c-0.3,0-0.5,0.1-0.7,0.2l-0.1,0.2c-2.3,0.3-4.8,0.6-7.6,1
				c-2.7,0.3-5.3,0.8-7.8,1.3l-0.3,1c-1.1,3.4-2.2,6.8-3.4,10.2c-1.2,3.4-2.2,6.8-3.2,10.2c-0.1,0.5-0.3,1-0.6,1.5
				c-0.3,0.5-0.5,1.1-0.6,1.6c-0.3,0.5-0.5,1.1-0.6,1.7c-0.1,0.6-0.3,1.2-0.5,1.7c-0.1,0.1-0.2,0.3-0.3,0.5
				c-0.2,0.2-0.2,0.4-0.2,0.6c-0.1,0.3-0.2,0.6-0.3,1c-0.1,0.3-0.1,0.6-0.2,1c-0.1,0.3-0.1,0.7-0.1,1.1c0,0.4,0,0.7-0.1,0.9l-0.6,1
				c-0.1,0.3-0.2,0.6-0.2,1c0,0.3,0,0.6-0.1,1c-0.3,0.1-0.5,0.2-0.4,0.3c0.1,0.1-0.1,0.2-0.4,0.2c-0.2,0.1-0.5,0.2-0.8,0.2
				C827.4,616.7,827.1,616.8,826.9,616.9z"/>
			<path class="st0" d="M854.2,609.8c-0.5,0.3-1.1,0.6-1.7,0.7c-0.6,0.2-1.2,0.3-1.8,0.5c-0.8,0.2-1.6,0.4-2.6,0.6
				c-1,0.2-1.9,0.3-2.9,0.2c-1,0-1.9-0.2-2.7-0.6c-0.9-0.4-1.6-0.9-2.2-1.8c-0.5-0.6-0.7-1.3-0.8-2.1c-0.1-0.8,0-1.7,0.2-2.6
				c0.2-0.9,0.5-1.7,0.8-2.6c0.4-0.9,0.7-1.7,1.1-2.4c0.3-0.3,0.6-0.6,0.8-1c0.2-0.4,0.3-0.7,0.4-1c1.3-1.6,2.7-3.1,4.2-4.6
				c1.4-1.5,2.9-2.6,4.5-3.5c0.7-0.4,1.4-0.8,2.2-1.2c0.8-0.3,1.5-0.6,2.1-1c0.3-0.1,0.5-0.3,0.6-0.4c0.2-0.1,0.4-0.2,0.7-0.2
				c2.3,0,3.8,0.4,4.5,1.2c0.7,0.8,1.1,1.6,1.1,2.4c-0.1,0.3-0.3,0.5-0.7,0.9c-0.4,0.3-0.7,0.6-0.9,1c-0.3,0.3-0.6,0.6-0.9,0.9
				c-0.3,0.3-0.5,0.6-0.6,0.8c-2.6,2.2-5.1,4.2-7.7,6c-0.6,0.5-1.5,0.9-2.6,1.1c-1.1,0.2-2.1,0.2-3.2,0.1c-0.4,0.4-0.8,0.9-1.2,1.5
				c-0.4,0.6-0.7,1.3-0.9,1.9c-0.2,0.7-0.3,1.3-0.3,2c0,0.7,0.3,1.2,0.8,1.7c1.3,0.1,2.4,0,3.4-0.4c1-0.4,1.9-0.7,2.8-1
				c0.7-0.2,1.4-0.4,2.2-0.7c0.8-0.3,1.4-0.5,2-0.8c1.3-0.6,2.5-1.2,3.3-1.5c0.9-0.4,1.7-0.7,2.5-1.1c0.8-0.3,1.6-0.7,2.4-1.1
				c0.8-0.4,1.9-0.9,3.2-1.6c1-0.5,2.1-1,3.1-1.6c1.1-0.5,2.1-1.1,3-1.6c0.2-0.1,0.3-0.2,0.2-0.2c0,0-0.1,0-0.1,0
				c-0.1,0-0.1,0.1-0.1,0.1c0,0,0.1,0,0.4,0c0.1,0,0.1,0,0.2-0.1c0.1-0.1,0.2-0.1,0.2-0.1c0.6,0,1,0,1.2,0.1
				c0.2,0.1,0.3,0.3,0.2,0.5c0,0.2-0.2,0.5-0.4,0.8c-0.2,0.3-0.5,0.6-0.7,1c0.1,0,0,0.1-0.2,0.2c-0.2,0.2-0.5,0.3-0.8,0.5
				c-0.3,0.2-0.7,0.4-1.1,0.7c-0.7,0.5-1.6,1.1-2.6,1.6c-1,0.6-2.1,1.1-3.1,1.7c-1,0.5-2,1-2.9,1.5c-0.9,0.5-1.6,0.8-2,1
				L854.2,609.8z M847.2,599.9c0.6,0,1.1-0.2,1.7-0.5c0.5-0.3,1.1-0.6,1.6-1c1.3-1,2.6-2.2,4-3.4c1.3-1.3,2.6-2.5,3.7-3.8
				c0.1,0,0.2-0.1,0.2-0.3c-2.3,0.8-4.4,2.1-6.1,3.7C850.4,596.2,848.8,598,847.2,599.9z"/>
			<path class="st0" d="M893.5,590.1c-0.1,0.2-0.2,0.4-0.1,0.5c0,0.1-0.1,0.3-0.3,0.4c0,0.1-0.1,0.2-0.3,0.2
				c-0.1,0.3-0.4,0.5-0.7,0.6c-0.4,0.1-0.7,0.3-0.9,0.6c-1.3,0.4-2.6,0.9-4,1.4c-1.4,0.6-2.8,1.2-4.1,1.9c-1.3,0.7-2.5,1.4-3.6,2.1
				c-1.1,0.7-1.9,1.4-2.5,2.1c-0.5,0.5-1.1,1.1-1.6,1.6s-1.1,1.2-1.5,1.9c-0.2,0.5-0.4,1.2-0.6,1.9c-0.2,0.8-0.4,1.5-0.6,2.3
				c-0.2,0.7-0.4,1.4-0.6,2c-0.2,0.6-0.4,0.9-0.6,1.1c-0.1,0.3-0.4,0.6-0.8,1.1c-0.4,0.5-0.7,0.6-1,0.6c-1,0.5-1.8,0.4-2.5-0.2
				c-0.7-0.6-0.9-1.4-0.7-2.4c0.1-0.6,0.4-1.6,0.9-2.9c0.4-1.3,0.7-2.3,0.9-3v-0.1c0.1-0.2,0.1-0.4,0.1-0.6c0.5-0.9,0.9-1.8,1.3-2.8
				c0.3-1,0.7-1.9,1.2-2.8c0-0.1,0-0.1,0.1-0.1c0.1,0,0.1-0.1,0.1-0.1c0.3-1.3,0.7-2.6,1.2-3.8c0.5-1.3,0.9-2.5,1.3-3.6
				c0.1-0.3,0.2-0.4,0.3-0.6c0.1-0.1,0.3-0.3,0.4-0.5c0.3-0.1,0.6-0.3,0.8-0.4c0.2-0.1,0.5-0.2,0.7-0.2c0.1-0.1,0.3-0.2,0.5-0.2
				c0.1,0,0.3,0,0.4,0c0.2,0,0.3,0,0.4,0c0.6,0.1,1,0.3,1.3,0.7c0.8,1,0.7,2-0.2,2.9c-0.1,0.5-0.2,1-0.3,1.5c-0.2,0.5-0.3,1-0.3,1.3
				c2.2-1.7,4.5-2.8,6.6-3.5c2.2-0.6,4.2-1,6.1-1.2c0.5-0.1,1.1-0.1,1.8-0.2C892.4,589.6,893,589.7,893.5,590.1z"/>
		</g>
	</g>
</g>
<g>
	<g>
		<path class="st0" d="M-953.3,430.9c-33.2,47.3-21.2,103.7-21.2,103.7s0-2,1-10.1c1.9-15.3,11.2-29.5,20.4-41.6
			c6.7-8.8,13-17.3,18.1-27.2c1.2-2.3,6.2-9.1,5.7-11.8c1.5,10.1-1.8,21.6-4.9,31c-5.9,18.2-19.5,31.4-27.9,48.2
			c-5.9,11.8-8.2,25.1-8.5,38.2c-0.7,24.8,7.3,49,20.1,70c5.4,8.8,12.2,16.9,18.8,24.9c0.8,1,1.7,2,2.6,3
			c-26.7,3.9-55.2-2.4-79.7-21.5c-35.3-27.5-53.3-74.5-31.5-125.2c1.9,4,3.9,8.7,6.1,14.1c10.6,25.8,13.1,34.2,36.3,52.4
			c23.2,18.1,22.2,39.3,22.2,39.3s4-8.1-2-31.2c-8.1-31.1-27-42.6-28.1-43.3c0.3,0.1,2,0.8,12,5c11.8,4.9,19.8,18.5,20.1,19.1
			c-0.2-0.8-8.3-27.5-24.2-46.3c-8.9-10.6-24.1-18.1-35.8-22.7c12.2-24,26.8-46.5,41.2-69.1c17.1-26.9,34.2-53.8,47-83.1
			c0.2-0.5,0.7-0.8,1.6-1.9c6.6,16.1,15.2,30.6,23.2,45.4c0.2,0.4,0.5,0.9,0.7,1.3C-930.1,401.3-941.8,414.4-953.3,430.9z"/>
		<path class="st0" d="M-846,517.4c-8.7-22.5-22.2-42.4-34.1-63.1c-4.8-8.4-10.4-16.3-15.6-24.5c0.5,6.5,1.1,12.9,1.3,19.4
			c0.5,17.6-2.9,35-10.5,50.8c-7.5,15.6-19,28.6-28.6,42.9c-11.3,16.7-24,35.6-24.1,56.6c-0.1,12.4,5.3,22.9,11.4,33.3
			c5.4,9.1,11.5,17.8,17.9,26.3c27.5-4.2,53-19.5,70-43.1C-836.5,585.6-832.3,552.5-846,517.4z M-854.2,559.8
			c-0.4,0.6-1.2,1-1.8,1.4c-1.7,0.9-4.4,1.2-5.9,2.3c-1.1,0.8-1,0.9-0.4,2.2c0.7,1.3,1.8,2.4,2.8,3.5c0.4,0.4,0.4,1.1-0.1,1.4
			c-1.2,0.9-3.5,2.7-4.2,3.4c-0.8,0.8,2,2.7,3.4,3.6c0.3,0.2,0.4,0.7,0.1,1l-1.4,1.4c-2,2-2,2-2,4c0,2-2,13.1-14.1,13.1
			c-12.1,0-25.2-5-42.3,5c-17.1,10.1-18.1,32.2-18.1,32.2s-4-5-1-26.2c3.7-25.8,19.6-37.9,20.1-38.3c-0.4,0.1-11.2,2.2-20.1,12.1
			c-6.7,7.4-11.1,20.1-11.1,20.1s-10.1-24.2,36.3-71.5c18.4-18.8,19.1-38.3,19.1-38.3c0,0.2,2,1.5,2.2,1.7
			c7.7,6.3,14.4,14.6,18.9,23.5c1.8,3.5,3.5,7.2,4.3,11.1c0.9,3.8,1,7.9,2.4,11.6c2.4,6.2,8.6,9.3,12.2,14.7
			C-853.9,556.3-853.1,558.3-854.2,559.8z"/>
	</g>
	<g>
		<text transform="matrix(1 0 0 1 -805.1394 500.7194)" class="st1" style="font-family:'Ubuntu-Medium'; font-size:159.7178px;">Lukanda</text>
		<text transform="matrix(1 0 0 1 -722.7239 578.1041)" class="st0" style="font-family:'HighTide'; font-size:100.1857px;">Beauty Center</text>
	</g>
</g>
</svg>
